<svg xmlns="http://www.w3.org/2000/svg" viewBox="0 0 512 512" width="512" height="512" role="img" aria-label="ghostvault logo">
  <defs>
    <linearGradient id="tile" x1="0" y1="0" x2="0" y2="1">
      <stop offset="0" stop-color="#13151D"/>
      <stop offset="1" stop-color="#0A0B10"/>
    </linearGradient>
    <radialGradient id="glow" cx="0.5" cy="0.34" r="0.62">
      <stop offset="0" stop-color="#FACC15" stop-opacity="0.20"/>
      <stop offset="1" stop-color="#FACC15" stop-opacity="0"/>
    </radialGradient>
    <linearGradient id="accent" x1="0.25" y1="0.05" x2="0.75" y2="1">
      <stop offset="0" stop-color="#FACC15"/>
      <stop offset="1" stop-color="#B45309"/>
    </linearGradient>
    <linearGradient id="sheen" x1="0" y1="0.05" x2="0" y2="0.6">
      <stop offset="0" stop-color="#FFFFFF" stop-opacity="0.28"/>
      <stop offset="1" stop-color="#FFFFFF" stop-opacity="0"/>
    </linearGradient>
    <filter id="shadow" x="-30%" y="-30%" width="160%" height="160%">
      <feDropShadow dx="0" dy="12" stdDeviation="16" flood-color="#B45309" flood-opacity="0.50"/>
    </filter>
  </defs>

  <rect x="16" y="16" width="480" height="480" rx="116" fill="url(#tile)"/>
  <rect x="16" y="16" width="480" height="480" rx="116" fill="url(#glow)"/>
  <rect x="17" y="17" width="478" height="478" rx="115" fill="none" stroke="#FFFFFF" stroke-opacity="0.07" stroke-width="2"/>

  <g filter="url(#shadow)">
    <path d="M146,372 L146,240 A110,110 0 0 1 366,240 L366,372 Q329.5,408 293,372 Q256.5,408 220,372 Q183.5,408 146,372 Z" fill="url(#accent)"/>
  </g>
  <path d="M146,372 L146,240 A110,110 0 0 1 366,240 L366,372 Q329.5,408 293,372 Q256.5,408 220,372 Q183.5,408 146,372 Z" fill="url(#sheen)"/>
  <circle cx="256" cy="214" r="26" fill="#0B0C12"/><path d="M238,232 L274,232 L284,288 Q256,300 228,288 Z" fill="#0B0C12"/>
</svg>
